<svg xmlns="http://www.w3.org/2000/svg" width="20" height="18" viewBox="0 0 20 18">
  <path id="패스_2" data-name="패스 2" d="M16.5,3A6.037,6.037,0,0,0,12,5.05,6.037,6.037,0,0,0,7.5,3,5.4,5.4,0,0,0,2,8.4c0,3.708,3.4,6.729,8.55,11.32L12,21l1.45-1.295C18.6,15.124,22,12.1,22,8.4A5.4,5.4,0,0,0,16.5,3ZM12.1,18.253l-.1.1-.1-.1C7.14,14.026,4,11.23,4,8.4A3.386,3.386,0,0,1,7.5,4.962a3.912,3.912,0,0,1,3.57,2.315h1.87A3.886,3.886,0,0,1,16.5,4.962,3.386,3.386,0,0,1,20,8.4C20,11.23,16.86,14.026,12.1,18.253Z" transform="translate(-2 -3)" fill="#171717"/>
</svg>
